<?xml version="1.0" encoding="utf-8"?>
<!-- Generator: Adobe Illustrator 22.0.1, SVG Export Plug-In . SVG Version: 6.00 Build 0)  -->
<svg version="1.1" id="Layer_1" xmlns="http://www.w3.org/2000/svg" xmlns:xlink="http://www.w3.org/1999/xlink" x="0px" y="0px"
	 viewBox="0 0 500 500" style="enable-background:new 0 0 500 500;" xml:space="preserve">
<path fill="#FFF" d="M307,83.3c20,77.1-28.5,104.2-28.5,104.2C277.5,30.2,186.8,0,186.8,0c2.1,20.8,2.1,86.5-61.2,168.8S83.4,324,83.4,324
	c35.2,93.4,101.7,112.8,139,116c-37.1-57.4,25.8-119.4,27.1-120.7l0,0l0,0l0,0l0,0c1.2,1.2,63.5,62.5,27.7,119.7
	c51.4-8.3,139.2-51.8,142.6-159.8C424.1,146.9,307,83.3,307,83.3z"/>
<rect fill="#FFF" x="105" y="460" width="290" height="40"/>
</svg>
