<?xml version="1.0" encoding="UTF-8" standalone="no"?>
<svg xmlns="http://www.w3.org/2000/svg" id="svg18" version="1.1" viewBox="0 0 500 500" height="32"
	width="32">
	<metadata
		id="metadata24">
	</metadata>
	<defs
		id="defs22">
		<clipPath
			id="clipPath880">
			<path
				style="fill:none;stroke:#000000;stroke-width:1;stroke-opacity:1"
				id="path882"
				d="m 148.4,135.6 c -6.5,10.7 -14.1,21.8 -22.8,33.2 C 62.3,251.1 83.4,324 83.4,324 c 35.2,93.4 101.7,112.8 139,116 -37.1,-57.4 25.8,-119.4 27.1,-120.7 v 0 c 0,0 0,0 0,0 0,0 0,0 0,0 v 0 c 1.2,1.2 63.5,62.5 27.7,119.7 32.3,-5.2 78.9,-24.3 110,-64.6 z"
				fill-rule="evenodd"
				fill="#0A0A14" />
		</clipPath>
		<clipPath
			id="clipPath886"
			clipPathUnits="userSpaceOnUse">
			<path
				style="fill:none;stroke:#000000;stroke-width:1;stroke-miterlimit:4;stroke-dasharray:none;stroke-opacity:1"
				id="path888"
				d="m 158.6,117.5 240,240 c 12.2,-21.2 20.3,-47 21.3,-78.3 C 424.1,146.9 307,83.3 307,83.3 327,160.4 278.5,187.5 278.5,187.5 277.5,30.2 186.8,0 186.8,0 c 1.6,16.3 2,59.9 -28.2,117.5 z"
				fill-rule="evenodd"
				fill="#0A0A14" />
		</clipPath>
		<clipPath
			id="clipPath892">
			<path
				style="fill:none;stroke:#000000;stroke-width:1;stroke-opacity:1"
				id="path894"
				d="m 105,460 h 290 v 40 H 105 Z"
				fill-rule="evenodd"
				fill="#0A0A14" />
		</clipPath>
	</defs>

	<path
		clip-path="url(#clipPath892)"
		fill="#fff"
		fill-rule="evenodd"
		d="M105,460h290v40h-290z"
		id="path890"
		style="fill:none;stroke:#fff;stroke-opacity:1;stroke-width:30;stroke-miterlimit:4;stroke-dasharray:none" />
	<path
		clip-path="url(#clipPath886)"
		fill="#fff"
		fill-rule="evenodd"
		d="M158.6,117.5l240,240c12.2,-21.2 20.3,-47 21.3,-78.3C424.1,146.9 307,83.3 307,83.3c20,77.1 -28.5,104.2 -28.5,104.2C277.5,30.2 186.8,0 186.8,0C188.4,16.3 188.8,59.9 158.6,117.5z"
		id="path884"
		style="fill:none;stroke:#fff;stroke-opacity:1;stroke-width:40;stroke-miterlimit:4;stroke-dasharray:none" />
	<path
		clip-path="url(#clipPath880)"
		fill="#fff"
		fill-rule="evenodd"
		d="M148.4,135.6c-6.5,10.7 -14.1,21.8 -22.8,33.2C62.3,251.1 83.4,324 83.4,324c35.2,93.4 101.7,112.8 139,116c-37.1,-57.4 25.8,-119.4 27.1,-120.7l0,0c0,0 0,0 0,0c0,0 0,0 0,0l0,0c1.2,1.2 63.5,62.5 27.7,119.7c32.3,-5.2 78.9,-24.3 110,-64.6L148.4,135.6z"
		id="path878"
		style="fill:none;stroke:#fff;stroke-opacity:1;stroke-width:40;stroke-miterlimit:4;stroke-dasharray:none" />
	<path
		id="path16"
		d="M14.2,0l485.8,485.8l-14.1,14.1l-485.8,-485.8z"
		fill-rule="evenodd"
		fill="#fff" />
</svg>
