<svg fill="#FFFFFF" height="24" viewBox="0 0 32 32" width="24" xmlns="http://www.w3.org/2000/svg">
    <path
        d="m 16.0005,2 c 3.784159,0 6.851042,3.0668935 6.851042,6.8510642 V 13.914894 H 26.426 V 30 H 5.575 V 13.914894 H 9.149457 V 8.8510642 C 9.149457,5.0668935 12.216342,2 16.0005,2 Z m 8.638271,13.702128 H 7.3622285 V 28.212765 H 24.638771 Z M 16.0005,3.787234 c -2.796416,0 -5.063814,2.2674043 -5.063814,5.0638302 V 13.914894 H 21.064314 V 8.8510642 c 0,-2.7964259 -2.267397,-5.0638302 -5.063814,-5.0638302 z" />
    <path
        d="m 17.075497,24.700382 c 0,0.569578 -0.481511,1.031297 -1.075502,1.031297 -0.593991,0 -1.075501,-0.461719 -1.075501,-1.031297 0,-0.449 0.299325,-0.830778 0.717,-0.972385 v -2.809041 c 0,-0.189864 0.160495,-0.343765 0.358501,-0.343765 0.198006,0 0.358502,0.153901 0.358502,0.343765 v 2.809041 c 0.417676,0.141607 0.717,0.523385 0.717,0.972385 z M 18.151,22.88158 c 0.446156,0.484799 0.717001,1.121429 0.717001,1.818802 0,1.518931 -1.283924,2.750127 -2.868006,2.750127 -0.0067,0 -0.01367,-2.3e-5 -0.02036,-6.5e-5 -1.575208,-0.01044 -2.855639,-1.253906 -2.847595,-2.764395 0.0036,-0.691786 0.273871,-1.323004 0.716957,-1.804469 V 18.512594 C 13.848994,17.373461 14.812041,16.45 16,16.45 c 1.187959,0 2.151004,0.923461 2.151004,2.062594 z m 0,1.818802 c 0,-0.857136 -0.511178,-1.335187 -0.717002,-1.558827 v -4.628961 c 0,-0.758219 -0.643284,-1.375062 -1.434003,-1.375062 -0.79072,0 -1.434004,0.616843 -1.434004,1.375062 v 4.628961 c -0.212121,0.230493 -0.712454,0.700035 -0.716977,1.548001 -0.0059,1.132405 0.954931,2.065491 2.135587,2.073357 l 0.01539,6.3e-5 c 1.186081,0 2.151006,-0.925265 2.151006,-2.062594 z" />
</svg>